<?xml version="1.0" encoding="utf-8"?>
<!-- Generator: Adobe Illustrator 16.0.4, SVG Export Plug-In . SVG Version: 6.00 Build 0)  -->
<!DOCTYPE svg PUBLIC "-//W3C//DTD SVG 1.1//EN" "http://www.w3.org/Graphics/SVG/1.1/DTD/svg11.dtd">
<svg version="1.1" id="Layer_1" xmlns="http://www.w3.org/2000/svg" xmlns:xlink="http://www.w3.org/1999/xlink" x="0px" y="0px"
	 width="205px" height="47px" viewBox="11.1 0 205 47" enable-background="new 11.1 0 205 47" xml:space="preserve">
<g>
	<path fill="#FFFFFF" d="M56.5,11.4c-0.8-0.4-3-0.2-5.7,0.6c-4.7,3.2-8.7,8-8.9,15.5c-0.1,0.2-0.5,0-0.6-0.1c-1.3-2.4-1.8-5-0.7-8.7
		c0.2-0.3-0.5-0.7-0.6-0.6c-0.2,0.2-1.2,1.3-1.9,2.4c-3.1,5.5-1,12.6,4.6,15.7c5.6,3.1,12.6,1.1,15.7-4.5
		C62,25.4,58.7,12.6,56.5,11.4z"/>
	<g>
		<path fill="#FFFFFF" d="M76.4,14.5c-6.6,0-11.4,4.9-11.4,11.7c0,6.8,4.8,11.6,11.6,11.6c3.5,0,6.2-1.1,8.4-3.3
			c0.6-0.7,0.7-1.4,0.7-1.6c0-1.1-0.8-1.9-1.9-1.9c-0.6,0-1.1,0.2-1.6,0.7c-1.2,1.1-2.8,2.4-5.5,2.4c-3.7,0-6.8-2.8-7-6.4h14.9
			c1.6,0,2.4-0.7,2.4-2.4c0-0.5,0-0.8-0.1-1.5C86.2,17.9,82.2,14.5,76.4,14.5L76.4,14.5z M76.4,18.1c3.6,0,5.8,2.3,6,5.9H69.7
			C70,20.7,72.9,18.1,76.4,18.1z M101.3,14.5c-3,0-6,1.7-7.1,4.1v-1.5c0-2.3-1.8-2.4-2.1-2.4c-1.1,0-2.2,0.6-2.2,2.4V35
			c0,2.4,1.9,2.5,2.3,2.5c0.4,0,2.3-0.1,2.3-2.5v-9.7c0-4.1,2.4-7.1,5.8-7.1c3.2,0,4.9,2.2,4.9,6.6V35c0,2.4,1.9,2.5,2.3,2.5
			s2.3-0.1,2.3-2.5V23.5C109.6,19.1,107.4,14.5,101.3,14.5L101.3,14.5z M130.1,14.7c-1.1,0-1.8,0.6-2.3,1.8l-6.3,15.7l-6.1-15.6
			c-0.5-1.2-1.2-1.8-2.3-1.8c-1.2,0-2.3,1-2.3,2.2c0,0.3,0,0.6,0.3,1.3l7.1,16.9c0.8,2,2.3,2.4,3.2,2.4c1.1,0,2.4-0.4,3.2-2.4
			l7.2-17c0.2-0.6,0.2-1.1,0.2-1.2C132.4,15.6,131.4,14.7,130.1,14.7z M143.3,14.5c-2.9,0-5.6,0.8-7.6,2.3c-0.6,0.5-1,1.1-1,1.8
			c0,1,0.8,1.8,1.8,1.8c0.4,0,0.9-0.2,1.4-0.5c1.7-1.1,3.3-1.7,5.1-1.7c3.3,0,5.3,1.7,5.3,4.7v0.5c-7.5,0-15.2,0.9-15.2,7.5
			c0,4.7,4.1,6.8,8,6.8c3.2,0,5.8-1.3,7.4-3.7v1.2c0,1.7,1.1,2.4,2.1,2.4c0.2,0,2-0.1,2-2.4v-12C152.6,17.7,149.1,14.5,143.3,14.5z
			 M147.2,26.7h1v1.1c0,3.8-2.4,6.3-6.2,6.3c-1.1,0-4.4-0.2-4.4-3.3C137.6,27.2,143.1,26.7,147.2,26.7z M164.3,18.8
			c1.9,0,2.1-1.5,2.1-1.9c0-0.9-0.6-1.9-2.1-1.9h-4.1v-4.1c0-1.9-1.2-2.5-2.2-2.5c-0.4,0-2.3,0.1-2.3,2.5v19.6
			c0,4.5,2.3,6.9,6.5,6.9c1.1,0,2.2-0.2,2.8-0.5c0.8-0.4,1.2-1.1,1.2-1.8c0-1.1-0.7-1.8-1.8-1.8c-0.2,0-0.5,0.1-0.8,0.2
			c-0.4,0.1-0.7,0.2-1,0.2c-1.7,0-2.5-1.1-2.5-3.6V18.8H164.3L164.3,18.8z M179.4,14.5c-6.9,0-11.9,4.9-11.9,11.6
			c0,3.2,1.2,6.3,3.4,8.4c2.2,2.1,5.2,3.3,8.4,3.3c6.8,0,11.9-5,11.9-11.7C191.3,19.4,186.3,14.5,179.4,14.5L179.4,14.5z
			 M179.4,33.9c-4.7,0-7.1-3.9-7.1-7.8c0-5.4,3.7-7.8,7.1-7.8c3.5,0,7.1,2.4,7.1,7.8C186.6,31.5,182.9,33.9,179.4,33.9z"/>
	</g>
</g>
</svg>
