<?xml version="1.0" encoding="utf-8"?>
<!-- Generator: Adobe Illustrator 16.0.4, SVG Export Plug-In . SVG Version: 6.00 Build 0)  -->
<!DOCTYPE svg PUBLIC "-//W3C//DTD SVG 1.1//EN" "http://www.w3.org/Graphics/SVG/1.1/DTD/svg11.dtd">
<svg version="1.1" id="Layer_1" xmlns="http://www.w3.org/2000/svg" xmlns:xlink="http://www.w3.org/1999/xlink" x="0px" y="0px"
	 width="202px" height="47px" viewBox="11.6 0 202 47" enable-background="new 11.6 0 202 47" xml:space="preserve">
<g>
	<g>
		<g>
			<path fill="#FFFFFF" d="M95.8,38.6c0,0.4-0.1,0.7-0.1,1l1.4-2.5l-0.2-0.8l1.4-0.2l0.6,3.4l0.6-2.1c0.1-0.2,0.1-0.4,0.1-0.6
				s0-0.4-0.1-0.6L101,36c0.1,0.3,0.1,0.6,0.1,0.8c0,0.4-0.1,0.7-0.4,1.3l-1.1,3.2h-1.7L97.5,39l-1.3,2.3h-1.7
				c0.1-2.1,0-3.5-0.2-4.9l1.5-0.2C95.8,37,95.8,37.7,95.8,38.6z"/>
			<path fill="#FFFFFF" d="M104.6,37.4c-0.6,0.4-0.9,0.5-1.5,0.8l-0.7,3H101l1-5l1.3-0.2l-0.1,0.7c0.6-0.3,0.9-0.6,1.3-0.7
				L104.6,37.4z"/>
			<path fill="#FFFFFF" d="M105.5,36.3l1.5-0.2l-1.1,5.2h-1.5L105.5,36.3z M106,34.1l1.5-0.2l-0.4,1.6l-1.5,0.3L106,34.1z"/>
			<path fill="#FFFFFF" d="M109.8,37.4l-0.6,2.5c0,0.1,0,0.1,0,0.1c0,0.1,0.1,0.1,0.1,0.1c0.3,0,0.6-0.1,0.8-0.3l0.2,1
				c-0.4,0.2-1,0.4-1.6,0.4c-0.7,0-1.1-0.4-1.1-1c0-0.1,0-0.2,0-0.2l0.6-2.9h-0.7l0.3-1.1h0.7l0.2-1.2l1.5-0.2l-0.3,1.5h1.2
				l-0.3,1.3H109.8L109.8,37.4z"/>
			<path fill="#FFFFFF" d="M111.5,38.1c0.2-1.1,0.8-2,2.4-2c1,0,1.7,0.4,1.7,1.3c-0.1,1-0.6,1.5-1.9,1.9c-0.6,0.2-0.6,0.2-1.1,0.3
				l-0.1,0.4c-0.1,0.2,0,0.4,0.3,0.4c0.6,0,1.3-0.3,2-0.6l0.2,1c-0.6,0.4-1.7,0.7-2.5,0.7c-1,0-1.5-0.5-1.5-1.3
				c0-0.2,0.1-0.4,0.1-0.7L111.5,38.1z M114.2,37.6c0-0.2-0.2-0.3-0.4-0.3c-0.6,0-0.7,0.3-0.8,0.7l-0.1,0.3c0.2-0.1,0.4-0.1,0.7-0.2
				C114,38.1,114.1,37.9,114.2,37.6z"/>
			<path fill="#FFFFFF" d="M119.4,34.2l1.5-0.2l-1.5,7.4h-1.5L119.4,34.2z"/>
			<path fill="#FFFFFF" d="M121.1,38.1c0.2-1.1,0.8-2,2.4-2c1,0,1.7,0.4,1.7,1.3c-0.1,1-0.6,1.5-1.9,1.9c-0.6,0.2-0.6,0.2-1.1,0.3
				l-0.1,0.4c-0.1,0.2,0,0.4,0.2,0.4c0.6,0,1.3-0.3,2-0.6l0.2,1c-0.6,0.4-1.6,0.7-2.5,0.7c-1,0-1.5-0.5-1.5-1.3
				c0-0.2,0.1-0.4,0.1-0.7L121.1,38.1z M123.8,37.6c0-0.2-0.2-0.3-0.4-0.3c-0.6,0-0.6,0.3-0.8,0.7l-0.1,0.4c0.2-0.1,0.4-0.1,0.7-0.2
				C123.6,38.1,123.8,37.9,123.8,37.6z"/>
			<path fill="#FFFFFF" d="M125.3,41.1l0.4-1.1c0.4,0.1,0.8,0.3,1.4,0.3c0.5,0,0.6-0.2,0.6-0.4c0.1-0.2-0.1-0.4-0.6-0.7
				c-1-0.6-1.1-0.9-0.9-1.7c0.2-1.1,0.6-1.4,1.9-1.4c0.5,0,1.1,0.1,1.5,0.2l-0.3,1.1c-0.4-0.1-0.9-0.2-1.3-0.2
				c-0.5,0-0.6,0.1-0.6,0.4c-0.1,0.2,0,0.3,0.5,0.6c1.1,0.6,1.3,0.8,1.1,1.7c-0.2,1.1-0.6,1.6-2.1,1.6
				C126.4,41.4,125.7,41.3,125.3,41.1z"/>
			<path fill="#FFFFFF" d="M129.6,41.1L130,40c0.4,0.1,0.8,0.3,1.4,0.3c0.5,0,0.6-0.2,0.6-0.4c0.1-0.2-0.1-0.4-0.7-0.7
				c-1-0.6-1.1-0.9-0.9-1.7c0.2-1.1,0.6-1.4,1.9-1.4c0.5,0,1.1,0.1,1.5,0.2l-0.3,1.1c-0.4-0.1-0.9-0.2-1.3-0.2
				c-0.5,0-0.6,0.1-0.6,0.4c-0.1,0.2,0,0.3,0.5,0.6c1.1,0.6,1.3,0.8,1.1,1.7c-0.2,1.1-0.6,1.6-2.1,1.6
				C130.7,41.4,130,41.3,129.6,41.1z"/>
			<path fill="#FFFFFF" d="M133.6,42.5l0.8-1.1h-0.6l0.4-1.8h1.5l-0.4,1.9l-1.2,1.5L133.6,42.5z"/>
			<path fill="#FFFFFF" d="M141.6,41.3v-0.5c-0.4,0.3-0.9,0.6-1.7,0.6c-1.1,0-1.3-0.7-1.1-1.8l0.3-1.4c0.2-1.2,0.6-2.1,2.7-2.1
				c0.2,0,0.5,0,0.6,0.1l0.4-2l1.5-0.2l-1.6,7.4L141.6,41.3L141.6,41.3z M140.3,39.8c-0.1,0.3,0,0.4,0.3,0.4c0.6,0,0.9-0.3,1.2-0.6
				l0.5-2.2c-0.2-0.1-0.4-0.1-0.6-0.1c-0.7,0-0.9,0.4-1,0.9L140.3,39.8z"/>
			<path fill="#FFFFFF" d="M144.3,39.8c0-0.1,0-0.3,0.1-0.4l0.3-1.1c0.3-1.3,0.9-2,2.7-2c1.4,0,1.9,0.8,1.9,1.7c0,0.1,0,0.2-0.1,0.4
				l-0.3,1.1c-0.3,1.2-0.8,2-2.7,2C144.9,41.4,144.3,40.7,144.3,39.8z M147.7,38c0-0.4-0.2-0.6-0.7-0.6s-0.8,0.3-1,0.8l-0.3,1.3
				c0,0.1,0,0.2,0,0.3c0,0.4,0.2,0.6,0.7,0.6c0.6,0,0.8-0.3,1-0.8l0.3-1.3C147.7,38.1,147.7,38.1,147.7,38z"/>
			<path fill="#FFFFFF" d="M158.3,37.9c0-0.1,0-0.1,0-0.2c0-0.1-0.1-0.2-0.2-0.2c-0.3,0-0.9,0.3-1.3,0.5l-0.7,3.3h-1.5l0.7-3.4
				c0-0.1,0-0.1,0-0.2c0-0.1-0.1-0.2-0.2-0.2c-0.3,0-0.9,0.3-1.3,0.5l-0.7,3.3h-1.5l1-5l1.3-0.2l-0.1,0.6c0.8-0.4,1.5-0.6,2-0.6
				c0.6,0,0.7,0.2,0.8,0.6c0.8-0.5,1.5-0.6,2-0.6c0.6,0,0.9,0.4,0.8,1c0,0.2,0,0.4-0.1,0.6l-0.7,3.6h-1.1L158.3,37.9z"/>
			<path fill="#FFFFFF" d="M160.4,39.8c0-0.1,0-0.3,0.1-0.4l0.2-1.1c0.3-1.3,0.9-2,2.7-2c1.4,0,2,0.8,2,1.7c0,0.1,0,0.2-0.1,0.4
				l-0.2,1.1c-0.3,1.2-0.8,2-2.7,2C161,41.4,160.4,40.7,160.4,39.8z M163.8,38c0-0.4-0.2-0.6-0.6-0.6c-0.6,0-0.8,0.3-1,0.8l-0.3,1.3
				c0,0.1,0,0.2,0,0.3c0,0.4,0.2,0.6,0.7,0.6c0.6,0,0.8-0.3,1-0.8l0.3-1.3C163.8,38.1,163.8,38.1,163.8,38z"/>
			<path fill="#FFFFFF" d="M169.2,37.4c-0.7,0.4-0.9,0.5-1.5,0.8l-0.7,3h-1.5l1-5l1.3-0.2l-0.1,0.7c0.6-0.3,0.9-0.6,1.3-0.7
				L169.2,37.4z"/>
			<path fill="#FFFFFF" d="M169.6,38.1c0.2-1.1,0.8-2,2.4-2c1,0,1.7,0.4,1.7,1.3c-0.1,1-0.6,1.5-1.9,1.9c-0.6,0.2-0.6,0.2-1.1,0.3
				l-0.1,0.4c-0.1,0.2,0,0.4,0.2,0.4c0.6,0,1.3-0.3,2-0.6l0.2,1c-0.7,0.4-1.6,0.7-2.5,0.7c-1,0-1.5-0.5-1.5-1.3
				c0-0.2,0.1-0.4,0.1-0.7L169.6,38.1z M172.3,37.6c0-0.2-0.2-0.3-0.4-0.3c-0.6,0-0.7,0.3-0.8,0.7l-0.1,0.4c0.2-0.1,0.4-0.1,0.7-0.2
				C172.1,38.1,172.3,37.9,172.3,37.6z"/>
			<path fill="#FFFFFF" d="M174.3,39.6h1.5l-0.4,1.8h-1.5L174.3,39.6z"/>
		</g>
	</g>
	<path fill="#FFFFFF" d="M38.7,11.4c-2.5,3.6-2.2,8.3-0.3,12.1c0.1,0.1,0.1,0.2,0.1,0.3c0,0.1,0.1,0.1,0.1,0.2
		c0,0.1,0.1,0.1,0.1,0.1c0.1,0.1,0.1,0.1,0.1,0.2c0.1,0.1,0.1,0.2,0.2,0.3c0.1,0.1,0.1,0.1,0.1,0.2c0.1,0.1,0.1,0.2,0.2,0.4
		c0.1,0.1,0.1,0.1,0.1,0.1c0.1,0.2,0.2,0.3,0.3,0.5l0,0l0.1,0.1c0.1,0.1,0.2,0.2,0.3,0.4c0.1,0.1,0.1,0.1,0.1,0.1
		c0.1,0.1,0.2,0.2,0.2,0.3c0.1,0.1,0.1,0.1,0.1,0.1c0.1,0.1,0.2,0.3,0.4,0.4l0,0l0,0c0.1,0.1,0.2,0.2,0.4,0.4
		c0.1,0.1,0.1,0.1,0.1,0.1c0.1,0.1,0.2,0.2,0.3,0.3c0.1,0.1,0.1,0.1,0.1,0.1c0.1,0.1,0.3,0.2,0.4,0.4l0,0l0.1,0.1
		c0.1,0.1,0.2,0.2,0.4,0.3c0.1,0.1,0.1,0.1,0.2,0.1c0.1,0.1,0.2,0.2,0.3,0.2c0.1,0,0.1,0.1,0.2,0.1c0.1,0.1,0.2,0.2,0.4,0.2
		c0.1,0.1,0.1,0.1,0.1,0.1s0,0,0.1,0c0.1,0.1,0.2,0.1,0.4,0.2c0.1,0.1,0.1,0.1,0.1,0.1c0.2,0.1,0.4,0.2,0.6,0.3
		c0.1,0,0.1,0.1,0.2,0.1c0.1,0.1,0.2,0.2,0.4,0.2c0.1,0.1,0.1,0.1,0.2,0.1c0.1,0.1,0.2,0.1,0.3,0.2h0.1c0.1,0,0.1,0.1,0.1,0.1
		c0.1,0.1,0.3,0.1,0.5,0.2c0,0,0.1,0,0.1,0.1c0.2,0.1,0.4,0.1,0.6,0.3C47,30.9,47,31,47,31c0.2,0.1,0.4,0.1,0.5,0.2h0.1
		c0.2,0.1,0.4,0.1,0.6,0.2c0.1,0,0.1,0,0.1,0.1c0.2,0.1,0.4,0.1,0.6,0.2c12.1,2.2,15.6-7.2,15.6-7.2c-3.1,3.9-8.3,5-13.3,3.8
		c-0.2-0.1-0.4-0.1-0.6-0.2c-0.1,0-0.1,0-0.1-0.1c-0.2-0.1-0.4-0.1-0.6-0.2H50c-0.2-0.1-0.3-0.1-0.5-0.2c-0.1,0-0.1-0.1-0.1-0.1
		c-0.2-0.1-0.4-0.1-0.6-0.2c-0.1,0-0.1-0.1-0.1-0.1c-0.2-0.1-0.3-0.1-0.4-0.2c-0.1,0-0.1-0.1-0.1-0.1c-0.1-0.1-0.2-0.1-0.4-0.2
		c-0.1-0.1-0.2-0.1-0.2-0.1c-0.1-0.1-0.3-0.2-0.4-0.2c-0.1,0-0.1-0.1-0.1-0.1c-0.2-0.1-0.4-0.3-0.6-0.3c-0.2,0.2-0.2,0.2-0.2,0.2
		c-0.1-0.1-0.2-0.2-0.4-0.2c-0.1,0-0.1-0.1-0.1-0.1c-0.1-0.1-0.2-0.2-0.4-0.2c-0.1-0.1-0.1-0.1-0.2-0.1c-0.1-0.1-0.2-0.2-0.3-0.2
		c-0.1-0.1-0.1-0.1-0.1-0.1c-0.1-0.1-0.3-0.2-0.4-0.4c0,0-0.1,0-0.1-0.1c-0.1-0.1-0.3-0.2-0.4-0.4c-0.1-0.2-0.1-0.2-0.2-0.2
		c-0.1-0.1-0.2-0.2-0.3-0.3s-0.1-0.1-0.1-0.1c-0.1-0.1-0.2-0.3-0.4-0.4l0,0c-0.1-0.1-0.2-0.3-0.4-0.4c-0.1-0.1-0.1-0.1-0.1-0.1
		c-0.1-0.1-0.2-0.2-0.3-0.4c0-0.1-0.1-0.1-0.1-0.1c-0.1-0.1-0.2-0.3-0.3-0.4c-2.8-4-3.8-9.1-1.6-13.4"/>
	<path fill="#FFFFFF" d="M46.5,8.5c-1.8,2.6-1.8,6.1-0.3,8.8c0.3,0.5,0.6,0.9,0.8,1.3c0.3,0.4,0.6,0.8,0.9,1.1
		c0.1,0.1,0.3,0.3,0.4,0.4c0.1,0.1,0.1,0.1,0.1,0.1c0.1,0.1,0.3,0.2,0.4,0.4l0,0l0,0c0.2,0.1,0.3,0.3,0.5,0.4c0.1,0,0.1,0.1,0.1,0.1
		c0.2,0.1,0.4,0.2,0.6,0.4l0,0c0.1,0.1,0.2,0.1,0.3,0.2c0.1,0,0.1,0.1,0.1,0.1c0.1,0.1,0.2,0.2,0.4,0.2h0.1c0.1,0.1,0.2,0.1,0.4,0.2
		c0.1,0,0.1,0.1,0.1,0.1c0.1,0.1,0.2,0.1,0.2,0.1s0,0,0.1,0c0.2,0.1,0.4,0.2,0.5,0.2c0.1,0,0.1,0,0.1,0.1c0.1,0.1,0.3,0.1,0.4,0.2
		c0.1,0,0.1,0.1,0.2,0.1c0.1,0.1,0.2,0.1,0.4,0.1c0.1,0,0.1,0.1,0.2,0.1c0.2,0.1,0.4,0.1,0.6,0.2c9.4,1.6,11.5-5.7,11.5-5.7
		c-1.9,2.8-5.7,4.1-9.7,3.1c-0.2-0.1-0.4-0.1-0.6-0.2c-0.1,0-0.1-0.1-0.2-0.1c-0.1-0.1-0.2-0.1-0.4-0.1c-0.1,0-0.1-0.1-0.2-0.1
		c-0.1-0.1-0.3-0.1-0.4-0.2c-0.1,0-0.1,0-0.1-0.1c-0.2-0.1-0.4-0.2-0.5-0.2c-0.1-0.1-0.2-0.1-0.2-0.1c-0.1,0-0.1-0.1-0.1-0.1
		c-0.1-0.1-0.2-0.1-0.3-0.2c0,0-0.1,0-0.1-0.1C52.5,19,52.4,19,52.2,19c-0.1,0-0.1-0.1-0.1-0.1c-0.2,0.2-0.3,0.1-0.3,0
		c-0.2-0.1-0.4-0.2-0.6-0.4c-0.1-0.1-0.1-0.1-0.1-0.1c-1.8-1.4-3.2-3.3-3.8-5.5c-0.7-2.2-0.6-4.7,0.6-6.8"/>
	<path fill="#FFFFFF" d="M53,6.1c-1,1.6-1.1,3.6-0.4,5.3c0.7,1.9,2.4,3.3,4.3,3.9c0.1,0.1,0.2,0.1,0.2,0.1s0.1,0,0.1,0.1
		c0.1,0.1,0.2,0.1,0.4,0.1c5.2,1,6.6-2.7,6.9-3.2c-1.2,1.8-3.3,2.2-5.8,1.6c-0.2-0.1-0.4-0.1-0.6-0.2c-0.3-0.1-0.5-0.2-0.7-0.3
		c-0.5-0.2-0.8-0.5-1.3-0.7c-2.3-1.9-3.7-5.1-2.2-7.7"/>
	<path fill="#FFFFFF" d="M172.4,13.6l0.2,0.8c0.1,0.2-0.1,0.5-0.4,0.5"/>
	<path fill="#FFFFFF" d="M156.1,12.1c-0.1,0.2-0.1,0.6-0.2,0.7l-1.8,8.3l1.9-8.8L156.1,12.1z"/>
	<path fill="#FFFFFF" d="M102.7,17.7l-1,3.4L102.7,17.7z"/>
	<path fill="#FFFFFF" d="M172.6,14.4l-0.6-2.1c-0.4-1.6-1.6-2.3-4.1-2.3H157c-0.2,0-0.6,0.1-0.6,0.4L152.3,30
		c-0.1,0.2-0.1,0.4-0.1,0.6c0,0.1,0.6,0.1,0.7,0.1h3.8c0.2,0,0.7,0,0.8-0.1c0.1-0.1,0.2-0.4,0.2-0.7L159,23l1.7-7.6
		c0.1-0.2,0.3-0.5,0.6-0.5h10.8C172.4,14.9,172.6,14.7,172.6,14.4"/>
	<path fill="#FFFFFF" d="M187.9,6.5c-0.2,0-4.7,0-4.7,0c-0.3,0-0.6,0.3-0.7,0.5L174,19.2c-0.1,0.3-0.3,0.2-0.4-0.1l-0.7-2.7
		c-0.1-0.2-0.3-0.5-0.6-0.5h-5.4c-0.2,0-0.4,0.2-0.4,0.5l2.4,8.4c0.1,0.2,0.1,0.7,0,0.8l-1.1,4.4c-0.1,0.3,0.1,0.3,0.4,0.3h5.3
		c0.2,0,0.6-0.1,0.6-0.3l1.1-4.4c0.1-0.3,0.2-0.6,0.4-0.7l13.6-18.1c0.2-0.2,0.1-0.5-0.1-0.5L187.9,6.5L187.9,6.5L187.9,6.5z"/>
	<path fill="#FFFFFF" d="M131.9,9.9H127c-0.2,0-0.6,0.1-0.6,0.4l-1.7,7.5l-1.7,7.1c-0.1,0.2-0.3,0.2-0.6,0.2h-3.2
		c-3.2,0-2.8-1.9-2.1-5c0-0.1,2-9.9,2-9.9c0.1-0.2-0.1-0.4-0.4-0.4h-4.6c-0.2,0-0.6,0.1-0.6,0.4l-1.9,9.9
		c-0.9,5.4-0.9,10.1,5.3,10.3c0.1,0,9.8,0,9.8,0c0.2,0,0.6-0.1,0.6-0.4l2-9.9l2-9.9C131.9,10.1,132,9.9,131.9,9.9z"/>
	<path fill="#FFFFFF" d="M83.5,9.9h-5.2c-0.2,0-0.6,0.1-0.6,0.3l-0.9,4.1c-0.1,0.2,0.1,0.4,0.4,0.4h5c0.2,0,0.6-0.2,0.6-0.5l0.9-4.1
		C83.6,10.1,83.7,9.9,83.5,9.9z"/>
	<path fill="#FFFFFF" d="M76.8,16.1c-0.2,0-0.6,0.2-0.6,0.5l-0.6,3.1L74,26.8c0,0-0.8,3.8-0.9,4.1c0,0-0.7,2.7-2.4,2.6
		C70,33.4,69,33.3,69,33.3l0,0c-0.5-0.1-0.6,0.4-0.6,0.6l-1,4.5c-0.1,0.2,0.1,0.5,0.4,0.5c0,0,2.2,0.3,3.8,0.3h0.3
		c3.9,0,5.9-2.3,7.3-8.5l1.6-7.2l1.5-6.7c0.1-0.2-0.1-0.5-0.4-0.5"/>
	<path fill="#FFFFFF" d="M144.1,9.9c-8.7,0-10.9,5.4-12,10.8c-1.2,5.5-1,9.8,8,9.8h0.4c3.6,0,8,0,8,0c0.3,0,0.5-0.2,0.6-0.5l0.8-3.4
		c0.1-0.2-0.1-0.3-0.4-0.3h-8.1c-3,0-4-0.9-3.9-3c0-0.3,0.3-0.8,0.6-0.8h12.5c0.6,0,0.6-0.4,0.6-0.4C152.3,16.4,152.5,9.9,144.1,9.9
		 M146.4,18.5c0,0.3-0.8,0.2-0.8,0.2l-6.9-0.1c-0.2,0-0.3-0.4-0.3-0.6c0,0,0-0.3,0.1-0.4c0.6-1.9,2-2.9,4.5-2.9c2.8,0,3.4,1.4,3.4,3
		"/>
	<path fill="#FFFFFF" d="M106.3,24.8c0,0,2.4-5.9,3-9.4c0.7-4.5-1.6-11.3-10.4-11.3c-8.9,0-12.7,6.4-14.2,13.4s0.5,13.1,9.3,13h13.5
		c0.3,0,0.6-0.2,0.6-0.5l1.1-4.3c0.1-0.2-0.1-0.5-0.4-0.5h-1.1h-1.1C106.4,25.2,106.3,25.1,106.3,24.8
		C106.2,24.9,106.2,24.9,106.3,24.8 M101.7,21.2l-1,3.4c-0.1,0.2-0.4,0.4-0.6,0.4h-5.2C91,25,90,21.9,91,17.4c1-4.6,2.9-7.5,6.8-7.8
		c5.3-0.4,6.4,3.3,5.1,7.6L101.7,21.2z"/>
</g>
</svg>
