<?xml version="1.0" encoding="utf-8"?>
<!-- Generator: Adobe Illustrator 16.0.4, SVG Export Plug-In . SVG Version: 6.00 Build 0)  -->
<!DOCTYPE svg PUBLIC "-//W3C//DTD SVG 1.1//EN" "http://www.w3.org/Graphics/SVG/1.1/DTD/svg11.dtd">
<svg version="1.1" id="Layer_1" xmlns="http://www.w3.org/2000/svg" xmlns:xlink="http://www.w3.org/1999/xlink" x="0px" y="0px"
	 width="207px" height="47px" viewBox="9.1 0 207 47" enable-background="new 9.1 0 207 47" xml:space="preserve">
<g>
	<path fill="#FFFFFF" d="M62.7,24.7c0-0.5-0.2-0.8-0.6-1l-9.8-5.6C52.2,18,52,18,51.9,17.9h-0.1c-0.2,0-0.4,0-0.6,0.2l-9.8,5.6
		c-0.4,0.2-0.6,0.7-0.6,1v15c0,0.2,0.1,0.4,0.3,0.6c0.2,0.1,0.4,0.1,0.6,0l5.8-3.3c0.4-0.2,0.6-0.6,0.6-1v-7c0-0.5,0.2-0.8,0.6-1
		l2.4-1.4c0.2-0.1,0.4-0.2,0.6-0.2c0.2,0,0.4,0,0.6,0.2l2.5,1.4c0.4,0.2,0.6,0.7,0.6,1v7c0,0.5,0.2,0.8,0.6,1l5.8,3.3
		c0.2,0.1,0.4,0.1,0.6,0c0.2-0.1,0.3-0.3,0.3-0.6V24.7z"/>
	<path fill="#FFFFFF" d="M114.6,3.9c-0.2-0.1-0.4-0.1-0.6,0c-0.2,0.1-0.3,0.3-0.3,0.6v15c0,0.1-0.1,0.3-0.2,0.4
		c-0.1,0.1-0.3,0.1-0.4,0l-2.4-1.4c-0.4-0.2-0.8-0.2-1.2,0L99.9,24c-0.4,0.2-0.6,0.7-0.6,1v11.2c0,0.5,0.2,0.8,0.6,1l9.8,5.6
		c0.4,0.2,0.8,0.2,1.2,0l9.8-5.6c0.4-0.2,0.6-0.7,0.6-1v-28c0-0.5-0.2-0.8-0.7-1L114.6,3.9z M113.7,32.5c0,0.1,0,0.2-0.1,0.3
		l-3.3,1.9c-0.1,0-0.2,0-0.3,0l-3.3-1.9c-0.1,0-0.1-0.1-0.1-0.3v-3.9c0-0.1,0-0.2,0.1-0.3l3.3-2c0.1,0,0.2,0,0.3,0l3.3,2
		c0.1,0,0.1,0.1,0.1,0.3V32.5L113.7,32.5z"/>
	<path fill="#FFFFFF" d="M149.5,28.6c0.4-0.2,0.6-0.7,0.6-1v-2.8c0-0.5-0.2-0.8-0.6-1l-9.7-5.7c-0.4-0.2-0.8-0.2-1.2,0l-9.8,5.7
		c-0.4,0.2-0.6,0.7-0.6,1V36c0,0.5,0.2,0.8,0.7,1l9.7,5.6c0.4,0.2,0.7,0.2,1.1,0l5.9-3.3c0.2-0.1,0.3-0.3,0.3-0.6
		c0-0.2-0.1-0.4-0.3-0.6l-9.8-5.6c-0.2-0.1-0.3-0.3-0.3-0.6v-3.5c0-0.2,0.1-0.4,0.3-0.6l3.1-1.8c0.2-0.1,0.4-0.1,0.6,0l3.1,1.8
		c0.2,0.1,0.3,0.3,0.3,0.6v2.8c0,0.2,0.1,0.4,0.3,0.6c0.2,0.1,0.4,0.1,0.6,0L149.5,28.6z"/>
	<path fill="#FFFFFF" d="M80.4,18.1c0.4-0.2,0.8-0.2,1.2,0l9.7,5.6c0.4,0.2,0.6,0.7,0.6,1v11.2c0,0.5-0.2,0.7-0.6,1l-9.8,5.6
		c-0.4,0.2-0.8,0.2-1.2,0L70.6,37c-0.4-0.2-0.6-0.7-0.6-1V24.7c0-0.5,0.2-0.8,0.6-1L80.4,18.1z"/>
	<path fill="#FFFFFF" d="M168.3,42.8c-0.4,0-0.6-0.1-0.9-0.3l-3.1-1.8c-0.5-0.3-0.2-0.4-0.1-0.4c0.6-0.2,0.7-0.3,1.4-0.7
		c0.1,0,0.2,0,0.2,0l2.4,1.4c0.1,0,0.2,0,0.3,0l9.2-5.3c0.1,0,0.1-0.1,0.1-0.3V25c0-0.1,0-0.2-0.1-0.3l-9.2-5.3c-0.1,0-0.2,0-0.3,0
		l-9.2,5.3c-0.1,0-0.1,0.1-0.1,0.3v10.6c0,0.1,0,0.2,0.1,0.3l2.5,1.5c1.4,0.7,2.2-0.1,2.2-0.9V25.9c0-0.1,0.1-0.3,0.3-0.3h1.2
		c0.1,0,0.3,0.1,0.3,0.3v10.4c0,1.8-1,2.9-2.7,2.9c-0.6,0-0.9,0-2.1-0.6l-2.4-1.4c-0.7-0.4-0.9-0.9-0.9-1.7V25
		c0-0.7,0.4-1.3,0.9-1.7l9.2-5.3c0.6-0.3,1.4-0.3,2,0l9.2,5.3c0.7,0.4,0.9,0.9,0.9,1.7v10.6c0,0.7-0.4,1.3-0.9,1.7l-9.2,5.3
		C169,42.7,168.7,42.8,168.3,42.8z"/>
	<path fill="#FFFFFF" d="M171.2,35.5c-4,0-4.8-1.9-4.8-3.3c0-0.1,0.1-0.3,0.3-0.3h1.2c0.1,0,0.3,0.1,0.3,0.2
		c0.2,1.2,0.7,1.8,3.2,1.8c2,0,2.8-0.5,2.8-1.5c0-0.6-0.2-1-3.3-1.3c-2.5-0.3-4.1-0.8-4.1-2.8c0-1.9,1.6-3,4.2-3c3,0,4.4,1,4.6,3.3
		c0,0.1,0,0.1-0.1,0.2c0,0-0.1,0.1-0.2,0.1H174c-0.1,0-0.2-0.1-0.3-0.2c-0.3-1.3-0.9-1.7-2.9-1.7c-2.1,0-2.4,0.7-2.4,1.3
		c0,0.7,0.3,0.8,3.2,1.2c2.8,0.4,4.2,0.9,4.2,2.9S174.1,35.5,171.2,35.5z"/>
	<path fill="#FFFFFF" d="M139.1,28c0.1,0,0.2,0,0.2,0l1.9,1.1c0.1,0,0.1,0.1,0.1,0.2v2.1c0,0.1,0,0.2-0.1,0.2l-1.9,1.1
		c-0.1,0-0.2,0-0.2,0l-1.9-1.1c-0.1,0-0.1-0.1-0.1-0.2v-2.1c0-0.1,0-0.2,0.1-0.2L139.1,28z"/>
	<g>
		<path fill="#FFFFFF" d="M185.8,20.8c0,0.9-0.8,1.8-1.8,1.8s-1.8-0.8-1.8-1.8S183,19,184,19C185,19.1,185.8,19.9,185.8,20.8z
			 M182.5,20.8c0,0.8,0.6,1.5,1.5,1.5c0.8,0,1.5-0.7,1.5-1.5c0-0.8-0.6-1.5-1.5-1.5C183.2,19.4,182.5,20,182.5,20.8z M183.4,19.9
			h0.7c0.2,0,0.7,0,0.7,0.6c0,0.4-0.2,0.5-0.4,0.5c0.3,0,0.3,0.2,0.3,0.5c0,0.2,0,0.5,0.1,0.6h-0.5c0-0.1-0.1-0.6-0.1-0.6
			c0-0.1,0-0.2-0.2-0.2h-0.4v0.8h-0.4v-2.2H183.4z M183.7,20.7h0.3c0.3,0,0.3-0.2,0.3-0.3c0-0.3-0.2-0.3-0.3-0.3h-0.3V20.7z"/>
	</g>
</g>
</svg>
