<?xml version="1.0" encoding="utf-8"?>
<!-- Generator: Adobe Illustrator 16.0.4, SVG Export Plug-In . SVG Version: 6.00 Build 0)  -->
<!DOCTYPE svg PUBLIC "-//W3C//DTD SVG 1.1//EN" "http://www.w3.org/Graphics/SVG/1.1/DTD/svg11.dtd">
<svg version="1.1" id="Layer_1" xmlns="http://www.w3.org/2000/svg" xmlns:xlink="http://www.w3.org/1999/xlink" x="0px" y="0px"
	 width="228.5px" height="53.7px" viewBox="-4.2 0 228.5 53.7" enable-background="new -4.2 0 228.5 53.7" xml:space="preserve">
<g>
	<path fill="#FFFFFF" d="M123.6,21.9h-7.2v0.8c2.3,0,2.6,0.6,2.6,3.3V31c0,2.8-0.3,3.4-2.6,3.4c-1.7-0.2-2.8-1.1-4.4-3l-1.8-2
		c2.4-0.5,3.9-2,3.9-3.7c0-2.3-1.9-4-5.5-4h-7v0.8c2.3,0,2.6,0.6,2.6,3.3v5.1c0,2.8-0.3,3.4-2.6,3.4V35h8v-0.8
		c-2.3,0-2.6-0.6-2.6-3.4v-1.5h0.7l4.4,5.5h11.7c5.7,0,8.2-3.1,8.2-6.7C131.8,24.8,129.4,21.9,123.6,21.9z M106.9,28.4v-5.3h1.6
		c1.8,0,2.6,1.3,2.6,2.6s-0.8,2.6-2.6,2.6H106.9z M123.7,33.9h-0.3c-1.5,0-1.6-0.3-1.6-2.3v-8.7c0,0,1.8,0,1.9,0
		c4.1,0,4.9,3.1,4.9,5.5C128.6,30.9,127.9,33.9,123.7,33.9z"/>
	<path fill="#FFFFFF" d="M79.1,29.8l2.7-8.2c0.8-2.4,0.5-3.1-2.2-3.1v-0.8h7.5v0.8c-2.5,0-3.1,0.7-4.1,3.5l-4.6,13.7h-0.6l-4-12.5
		l-4.1,12.5h-0.6L64.8,22c-0.9-3-1.6-3.5-4-3.5v-0.8h8.9v0.8c-2.4,0-3,0.6-2.2,3.1l2.6,8.2l4.2-11.9h0.8L79.1,29.8z"/>
	<path fill="#FFFFFF" d="M92.7,35.6c-4.3,0-8-3.3-8-7.2c0-4,3.6-7.2,8-7.2c4.4,0,8,3.3,8,7.2C100.8,32.5,97.2,35.6,92.7,35.6z
		 M92.7,22.6c-3.7,0-5,3.3-5,5.9c0,2.6,1.3,5.9,5,5.9s5-3.3,5-5.9C97.9,25.9,96.5,22.6,92.7,22.6z"/>
	<path fill="#FFFFFF" d="M141.7,34.4v0.8h-9.1v-0.8c2.6,0,3.2-0.7,3.2-4.7v-6.4c0-4-0.6-4.7-3.2-4.7v-0.8h8.3c4.1,0,6.4,2.2,6.4,5
		c0,2.7-2.4,4.9-6.4,4.9h-2.3v1.9C138.5,33.6,139.1,34.4,141.7,34.4z M140.8,19.3h-2.3v6.9h2.3c2.3,0,3.3-1.6,3.3-3.4
		C144.1,20.9,143,19.3,140.8,19.3z"/>
	<path fill="#FFFFFF" d="M174.7,31.4l-0.2,0.8c-0.3,1.3-0.8,1.8-3.6,1.8h-0.6c-2.2,0-2.4-0.6-2.4-3.3v-1.8c3.1,0,3.4,0.3,3.4,2.4
		h0.8v-6h-0.8c0,2.2-0.2,2.4-3.4,2.4v-4.4h2.3c2.8,0,3.3,0.6,3.6,1.8l0.2,0.8h0.7l-0.3-3.7h-11.8v0.8c2.3,0,2.6,0.6,2.6,3.3v5.1
		c0,2.5-0.3,3.3-2.2,3.4c-1.7-0.2-2.8-1.1-4.4-2.8l-1.8-2c2.4-0.5,3.9-2,3.9-3.7c0-2.3-1.9-4-5.5-4h-7v0.8c2.3,0,2.6,0.6,2.6,3.3
		v5.1c0,2.8-0.3,3.4-2.6,3.4v0.6h8v-0.8c-2.3,0-2.6-0.6-2.6-3.4v-1.5h0.7l4.4,5.5h16.4l0.2-3.8L174.7,31.4L174.7,31.4L174.7,31.4z
		 M153.5,28.4v-5.3h1.6c1.8,0,2.5,1.3,2.5,2.6s-0.8,2.6-2.5,2.6H153.5z"/>
	<path fill="#FFFFFF" d="M182.9,35.6c-1.6,0-3-0.8-3.6-1.4c-0.2,0.2-0.6,0.8-0.7,1.4h-0.8v-5.6h0.8c0.3,2.6,2.2,4.2,4.6,4.2
		c1.3,0,2.4-0.8,2.4-1.9c0-1-0.9-1.8-2.5-2.5l-2.3-1c-1.6-0.8-2.7-2.2-2.7-3.9c0-1.9,1.8-3.6,4.2-3.6c1.3,0,2.4,0.6,3.1,1
		c0.2-0.2,0.5-0.7,0.6-1h0.8v4.8h-0.9c-0.3-1.9-1.3-3.4-3.4-3.4c-1.1,0-2.2,0.7-2.2,1.6c0,1,0.8,1.6,2.7,2.4l2.3,1
		c1.9,0.9,2.6,2.4,2.6,3.6C187.8,33.9,185.5,35.6,182.9,35.6z"/>
	<path fill="#FFFFFF" d="M195.2,35.6c-1.6,0-3-0.8-3.6-1.4c-0.2,0.2-0.6,0.8-0.7,1.4h-0.8v-5.6h0.8c0.3,2.6,2.2,4.2,4.6,4.2
		c1.3,0,2.4-0.8,2.4-1.9c0-1-0.9-1.8-2.5-2.5l-2.3-1c-1.6-0.8-2.7-2.2-2.7-3.9c0-1.9,1.8-3.6,4.2-3.6c1.3,0,2.4,0.6,3.1,1
		c0.2-0.2,0.5-0.7,0.6-1h0.8v4.8h-0.8c-0.3-1.9-1.3-3.4-3.4-3.4c-1.1,0-2.2,0.7-2.2,1.6c0,1,0.8,1.6,2.7,2.4l2.3,1
		c1.9,0.9,2.6,2.4,2.6,3.6C200,33.9,197.9,35.6,195.2,35.6z"/>
	<g>
		<path fill="#FFFFFF" d="M21,26.2c0,7,4,13.1,10,15.9L22.5,19C21.5,21.2,21,23.7,21,26.2z"/>
		<path fill="#FFFFFF" d="M50.5,25.4c0-2.3-0.8-3.7-1.5-4.9c-0.8-1.5-1.7-2.6-1.7-4.1c0-1.6,1.3-3.2,3-3.2c0.1,0,0.1,0,0.2,0
			c-3.2-2.8-7.3-4.7-12-4.7c-6.1,0-11.7,3.2-14.8,8c0.5,0,0.8,0,1.1,0c1.8,0,4.7-0.2,4.7-0.2c0.9-0.1,1,1.4,0.1,1.5
			c0,0-0.9,0.1-2,0.2l6.5,19.2l4-11.7l-2.7-7.5c-0.9-0.1-1.9-0.2-1.9-0.2c-0.9-0.1-0.8-1.5,0.1-1.5c0,0,3,0.2,4.7,0.2
			c1.8,0,4.7-0.2,4.7-0.2c0.9-0.1,1,1.4,0.1,1.5c0,0-0.9,0.1-2,0.2l6.4,19l1.8-5.9C50.1,28.6,50.5,26.9,50.5,25.4z"/>
		<path fill="#FFFFFF" d="M39,27.8l-5.3,15.4c1.6,0.5,3.3,0.8,5,0.8c2,0,4-0.3,5.8-0.9c0-0.1-0.1-0.1-0.1-0.2L39,27.8z"/>
		<path fill="#FFFFFF" d="M54.2,17.7c0.1,0.6,0.1,1.1,0.1,1.8c0,1.8-0.3,3.9-1.4,6.4l-5.5,15.6c5.3-3.1,8.8-8.8,8.8-15.3
			C56.5,23.1,55.6,20.3,54.2,17.7z"/>
		<path fill="#FFFFFF" d="M38.7,5.6C27.2,5.6,18,14.8,18,26.2c0,11.4,9.2,20.7,20.7,20.7c11.4,0,20.7-9.2,20.7-20.7
			C59.3,14.8,50.1,5.6,38.7,5.6z M38.7,46c-10.9,0-19.8-8.8-19.8-19.8c0-10.8,8.8-19.8,19.8-19.8c10.9,0,19.7,8.9,19.7,19.8
			C58.4,37.1,49.5,46,38.7,46z"/>
	</g>
</g>
</svg>
